<svg width="24" height="24" viewBox="0 0 24 24" fill="none" xmlns="http://www.w3.org/2000/svg">
<path d="M18.9992 10.9996V7.9996C18.9992 6.14309 18.2617 4.36261 16.949 3.04986C15.6362 1.7371 13.8557 0.999603 11.9992 0.999603C10.1427 0.999603 8.36223 1.7371 7.04948 3.04986C5.73672 4.36261 4.99922 6.14309 4.99922 7.9996V10.9996C4.99922 14.2996 1.99922 15.0996 1.99922 16.9996C1.99922 18.6996 5.89922 19.9996 11.9992 19.9996C18.0992 19.9996 21.9992 18.6996 21.9992 16.9996C21.9992 15.0996 18.9992 14.2996 18.9992 10.9996Z" stroke="#858A89" stroke-width="2" stroke-miterlimit="10" stroke-linecap="round" stroke-linejoin="round"/>
<path d="M12.0003 22C10.9893 22 10.0393 21.966 9.14531 21.9C9.3359 22.508 9.71561 23.0392 10.2291 23.4164C10.7426 23.7936 11.3632 23.997 12.0003 23.997C12.6375 23.997 13.258 23.7936 13.7715 23.4164C14.285 23.0392 14.6647 22.508 14.8553 21.9C13.9613 21.966 13.0113 22 12.0003 22Z" fill="#858A89"/>
</svg>
